# xmcd
# 
# Track frame offsets:
#     150
#     16880
#     33310
#     56105
#     75465
#     91707
#     112077
#     133405
#     153227
#     170860
# 
# Disc length: 2558
# 
# Revision: 2
# Processed by: cddbd v1.5.2PL0 Copyright (c) Steve Scherf et al.
# Submitted via: fre:ac v1.0.31
# 
DISCID=7d09fc0a
DTITLE=Various Artist - Dạ Vũ Tình Hè - Ngọc Lan - Lynda - Kiều Nga - Lệ Hằng - Người Đẹp Bình Dương Productions
DYEAR=1990
DGENRE=Pop
TTITLE0=Ngọc Lan - Môi Tím
TTITLE1=Lệ Hằng - Ước Hẹn -  Lv Lữ Liên
TTITLE2=Lynda Trang Đài - Ai Bảo Anh Làm Thinh - Trầm Tử Thiêng
TTITLE3=Kiều Nga - Người Từ Đâu Tới
TTITLE4=Ngọc Lan - Mẹ Hiền Yêu Dấu
TTITLE5=Lynda Trang Đài - Hãy Đến Bên Chàng
TTITLE6=Lệ Hằng - Trưng Vương Khung Cửa Mùa Thu - Nam Lộc
TTITLE7=Kiều Nga - Sao Không Đến Bên Em
TTITLE8=Lynda Trang Đài - Người Tình Và Mùa Thu
TTITLE9=Kiều Nga - Dáng Tiên Nữ
EXTD=
EXTT0=
EXTT1=
EXTT2=
EXTT3=
EXTT4=
EXTT5=
EXTT6=
EXTT7=
EXTT8=
EXTT9=
PLAYORDER=
